<svg width="237" height="237" viewBox="0 0 237 237" fill="none" xmlns="http://www.w3.org/2000/svg">
<g clip-path="url(#clip0_1653_63585)">
<path fill-rule="evenodd" clip-rule="evenodd" d="M34.504 211.123C34.504 211.123 21.2808 155.926 27.2628 104.546C33.2449 53.1666 60.3868 14.4342 122.534 15.4812C184.681 16.5281 210.709 67.5455 214.276 116.625C217.843 165.704 198.534 212.106 198.534 212.106L34.504 211.123Z" fill="#F3DFE1"/>
<path d="M78.3814 162.08C78.3814 158.001 75.0625 154.682 70.9834 154.682H64.6631C62.2092 154.682 60.1999 152.824 60.0879 150.452C60.0298 149.222 60.4644 148.055 61.3115 147.168C62.1591 146.28 63.3015 145.791 64.5289 145.791H99.6995C101.794 145.791 103.748 144.961 105.203 143.453C106.657 141.947 107.416 139.962 107.342 137.865C107.198 133.802 103.69 130.496 99.5238 130.496H25.7214C25.7195 130.706 25.7176 130.916 25.7162 131.126H99.5228C103.354 131.126 106.579 134.159 106.712 137.887C106.78 139.813 106.083 141.634 104.749 143.016C103.414 144.4 101.62 145.161 99.6986 145.161H64.5279C63.1267 145.161 61.8222 145.72 60.8552 146.734C59.8881 147.747 59.3925 149.078 59.4581 150.481C59.5857 153.19 61.8719 155.312 64.6621 155.312H70.9825C74.7148 155.312 77.7507 158.348 77.7507 162.08C77.7507 165.812 74.7148 168.848 70.9825 168.848H27.6844C27.7066 169.058 27.7288 169.269 27.751 169.478H70.9829C75.0625 169.478 78.3814 166.159 78.3814 162.08Z" fill="#E5BDC3"/>
<path d="M121.903 46.0697V42.8297C121.903 40.8251 120.272 39.1942 118.268 39.1942H95.6456C93.9883 39.1942 92.6395 37.8459 92.6395 36.1885C92.6395 34.5312 93.9878 33.1829 95.6456 33.1829H99.1063C101.111 33.1829 102.742 31.552 102.742 29.5474V25.9592C102.742 23.9546 101.111 22.3237 99.1063 22.3237H80.7603C80.2458 22.5288 79.737 22.7395 79.2306 22.9535H99.1063C100.764 22.9535 102.112 24.3019 102.112 25.9592V29.5474C102.112 31.2047 100.764 32.5531 99.1063 32.5531H95.6456C93.641 32.5531 92.0097 34.184 92.0097 36.1885C92.0097 38.1931 93.6406 39.824 95.6456 39.824H118.268C119.925 39.824 121.273 41.1724 121.273 42.8297V46.0697C121.273 47.727 119.925 49.0754 118.268 49.0754H46.6248C46.4746 49.2852 46.3234 49.494 46.1755 49.7052H118.268C120.272 49.7052 121.903 48.0743 121.903 46.0697Z" fill="#E5BDC3"/>
<path d="M213.544 109.03H161.365C159.707 109.03 158.359 107.682 158.359 106.025V102.437C158.359 100.779 159.707 99.4309 161.365 99.4309H164.825C166.83 99.4309 168.461 97.8 168.461 95.7954C168.461 93.7909 166.83 92.16 164.825 92.16H142.203C140.546 92.16 139.198 90.8116 139.198 89.1543V85.9143C139.198 84.2569 140.546 82.9086 142.203 82.9086H208.029C207.964 82.6983 207.898 82.4886 207.832 82.2788H142.203C140.199 82.2788 138.568 83.9097 138.568 85.9143V89.1543C138.568 91.1589 140.199 92.7897 142.203 92.7897H164.825C166.483 92.7897 167.832 94.1381 167.832 95.7954C167.832 97.4528 166.483 98.8011 164.825 98.8011H161.365C159.36 98.8011 157.729 100.432 157.729 102.437V106.025C157.729 108.029 159.36 109.66 161.365 109.66H213.619C213.594 109.45 213.569 109.24 213.544 109.03Z" fill="#E5BDC3"/>
<path d="M90.749 119.667C93.3781 119.667 95.5093 117.535 95.5093 114.906V110.261C95.5093 107.632 93.3781 105.501 90.749 105.501H58.3176C55.6884 105.501 53.5572 103.37 53.5572 100.74C53.5572 98.1113 55.6884 95.9801 58.3176 95.9801H63.2792C65.9083 95.9801 68.0395 93.8489 68.0395 91.2197V86.0758C68.0395 83.4466 65.9083 81.3154 63.2792 81.3154H31.7204C29.6742 88.6747 28.2059 96.453 27.2634 104.546C26.6785 109.568 26.2783 114.627 26.0303 119.667H90.749V119.667Z" fill="#FCF0F2"/>
<path d="M183.737 40.4038H158.921C157.316 40.4038 156.016 41.7044 156.016 43.3084V46.1426C156.016 47.747 157.317 49.0472 158.921 49.0472H178.709C180.313 49.0472 181.613 50.3478 181.613 51.9518C181.613 53.5557 180.313 54.8563 178.709 54.8563H175.681C174.077 54.8563 172.777 56.157 172.777 57.7609V60.8994C172.777 62.5033 174.077 63.804 175.681 63.804H200.309C195.909 55.1828 190.421 47.2462 183.737 40.4038Z" fill="#FCF0F2"/>
<path fill-rule="evenodd" clip-rule="evenodd" d="M204.863 156.886C204.863 156.886 212.635 144.211 210.692 127.286C208.749 110.361 198.064 113.182 198.064 113.182C198.064 113.182 200.59 82.7901 182.327 82.0191C164.065 81.2481 166.98 113.182 166.98 113.182C166.98 113.182 157.266 109.924 155.129 120.738C152.992 131.552 162.9 154.531 162.9 154.531C162.9 154.531 150.59 154.31 149.883 166.692C149.491 173.562 150.208 182.124 151.203 189.89C152.751 201.984 163.583 211.072 176.428 211.072H193.491C204.626 211.072 214.22 203.601 216.343 193.234C219.359 178.504 220.073 159.59 204.863 156.886Z" fill="#A84083"/>
<path d="M216.813 168.004L181.864 184.285C182.755 174.328 183.666 162.202 184.272 149.089L210.254 124.468C210.156 123.971 210.048 123.493 209.933 123.038L184.354 147.277C184.837 136.245 185.096 124.562 184.943 112.919L197.171 98.5077C197.069 97.9928 196.955 97.4764 196.832 96.961L184.914 111.007C184.746 101.178 184.274 91.406 183.388 82.1045C183.042 82.0662 182.69 82.035 182.327 82.0199C182.256 82.0171 182.187 82.019 182.116 82.0166C183.011 91.3346 183.486 101.132 183.655 110.99L168.213 95.4746C168.094 95.9575 167.984 96.4427 167.884 96.9293L183.684 112.803C183.84 124.407 183.584 136.054 183.105 147.059L157.496 115.414C157.225 115.728 156.968 116.077 156.726 116.463L183.019 148.956C182.414 162.075 181.502 174.21 180.611 184.17L150.378 163.496C150.265 163.919 150.17 164.362 150.092 164.826L180.481 185.607C179.127 200.45 177.855 210.115 177.818 210.394L179.066 210.561C179.103 210.282 180.377 200.603 181.733 185.736L217.148 169.237C217.046 168.819 216.934 168.408 216.813 168.004Z" fill="#D3D7F4"/>
<path fill-rule="evenodd" clip-rule="evenodd" d="M171.358 176.507C171.358 176.507 176.379 168.318 175.123 157.383C173.868 146.449 166.965 148.271 166.965 148.271C166.965 148.271 168.597 128.636 156.798 128.138C145 127.64 146.883 148.271 146.883 148.271C146.883 148.271 140.607 146.166 139.226 153.153C137.846 160.139 144.247 174.985 144.247 174.985C144.247 174.985 136.294 174.842 135.837 182.842C135.584 187.28 136.047 192.812 136.69 197.829C137.69 205.643 144.688 211.514 152.986 211.514H164.01C171.203 211.514 177.402 206.687 178.774 199.99C180.723 190.473 181.184 178.253 171.358 176.507Z" fill="#CD77AF"/>
<path d="M150.531 211.337C150.944 211.396 151.362 211.438 151.784 211.467C152.049 209.376 152.791 203.279 153.571 194.805L178.859 183.024C178.717 182.622 178.555 182.235 178.379 181.859L153.703 193.354C154.104 188.876 154.509 183.798 154.857 178.339C155.047 175.375 155.225 172.19 155.379 168.851L173.506 151.673C173.286 151.271 173.053 150.914 172.811 150.597L155.458 167.041C155.773 159.625 155.953 151.505 155.842 143.281L164.446 133.141C164.231 132.751 163.999 132.376 163.749 132.016L155.81 141.372C155.727 136.964 155.555 132.543 155.275 128.197C154.838 128.253 154.424 128.342 154.03 128.46C154.302 132.728 154.47 137.071 154.552 141.401L148.207 135.026C148.053 135.474 147.915 135.931 147.792 136.394L154.582 143.216C154.694 151.399 154.516 159.483 154.205 166.873L140.539 149.985C140.289 150.317 140.06 150.702 139.857 151.145L154.121 168.772C153.968 172.107 153.79 175.288 153.601 178.249C153.252 183.708 152.848 188.784 152.447 193.26L135.925 181.961C135.887 182.244 135.855 182.534 135.837 182.841C135.827 183.027 135.819 183.219 135.811 183.409L152.316 194.696C151.535 203.186 150.792 209.282 150.531 211.337Z" fill="#D3D7F4"/>
<path fill-rule="evenodd" clip-rule="evenodd" d="M60.7802 167.434C60.7802 167.434 66.6862 157.801 65.2098 144.938C63.7334 132.074 55.6121 134.218 55.6121 134.218C55.6121 134.218 57.5317 111.12 43.6522 110.534C29.7727 109.948 31.9876 134.218 31.9876 134.218C31.9876 134.218 24.6047 131.742 22.9804 139.961C21.3562 148.179 28.8864 165.644 28.8864 165.644C28.8864 165.644 19.5311 165.476 18.9935 174.887C18.6953 180.108 19.2405 186.615 19.996 192.518C21.1728 201.709 29.4052 208.617 39.1673 208.617H52.1354C60.5978 208.617 67.89 202.938 69.5034 195.059C71.7966 183.864 72.3395 169.488 60.7802 167.434Z" fill="#CD77AF"/>
<path d="M45.0513 192.947L69.471 174.736C69.3156 174.328 69.1446 173.932 68.958 173.548L44.928 191.468C44.5378 186.719 44.1438 181.332 43.8046 175.54C43.6198 172.384 43.446 168.993 43.2962 165.437L63.385 138.366C63.1597 137.941 62.922 137.556 62.6754 137.209L43.2154 163.433C42.8507 153.981 42.6764 143.459 42.9542 132.977L54.4605 121.045C54.3344 120.581 54.195 120.12 54.0434 119.664L43.0085 131.107C43.231 124.107 43.6624 117.157 44.3814 110.59C44.1428 110.565 43.9009 110.545 43.6524 110.535C43.4724 110.527 43.2972 110.526 43.1224 110.527C42.4312 116.862 42.0055 123.547 41.7759 130.289L32.9308 120.739C32.808 121.235 32.6979 121.735 32.6006 122.236L41.7192 132.08C41.4055 142.931 41.5831 153.853 41.9625 163.624L22.7874 143.809C22.8238 144.457 22.8876 145.127 22.975 145.813L42.039 165.513C42.1883 169.068 42.3627 172.458 42.5474 175.613C42.8876 181.42 43.282 186.82 43.6737 191.58L18.9186 179.005C18.9252 179.476 18.9384 179.954 18.954 180.435L43.7965 193.056C44.3838 200.018 44.9498 205.472 45.2956 208.617H46.5627C46.2192 205.504 45.6466 200.004 45.0513 192.947Z" fill="#D3D7F4"/>
<path fill-rule="evenodd" clip-rule="evenodd" d="M160.209 202.953H80.2163C66.8603 202.953 27.989 206.94 27.989 211.858C27.989 216.776 66.8603 220.763 80.2163 220.763H160.209C173.565 220.763 212.436 216.776 212.436 211.858C212.436 206.94 173.565 202.953 160.209 202.953Z" fill="#AB1D79"/>
<path fill-rule="evenodd" clip-rule="evenodd" d="M105.005 55.3654C105.005 55.3654 102.801 53.1137 100.597 53.2711C98.393 53.4284 96.609 57.4687 98.2356 59.1478C99.8623 60.8269 103.85 59.8583 103.85 59.8583L105.005 55.3654Z" fill="#332B28"/>
<path fill-rule="evenodd" clip-rule="evenodd" d="M105.005 54.6348C105.005 54.6348 104.008 53.7953 103.221 54.6348C102.434 55.4744 102.515 57.7034 99.1808 62.6106C93.6187 70.7962 86.6922 70.3923 86.1673 72.8438C85.6425 75.2953 90.5228 75.1517 90.2601 77.3032C89.9979 79.4547 89.627 79.733 90.785 80.5564C93.1463 82.2355 94.4058 80.504 95.3502 81.1862C96.2947 81.8684 98.7084 78.0411 99.5479 76.2818C100.387 74.5224 104.848 61.9813 104.69 59.1476C104.533 56.3139 105.005 54.6348 105.005 54.6348Z" fill="#F7F0E4"/>
<path d="M91.1 73.0017C91.0476 73.0017 90.9965 72.9758 90.9663 72.928C90.92 72.8543 90.9422 72.757 91.0159 72.7107C99.9933 67.0877 103.093 57.5684 103.123 57.473C103.15 57.3898 103.238 57.3435 103.321 57.3705C103.403 57.3969 103.45 57.4853 103.423 57.5679C103.393 57.6648 100.257 67.2937 91.1832 72.9772C91.1576 72.9937 91.1288 73.0017 91.1 73.0017Z" fill="#EADFCE"/>
<path d="M90.5623 78.6943C90.5094 78.6943 90.4579 78.6678 90.4281 78.6197C90.3823 78.5455 90.4049 78.4486 90.4791 78.4028C90.5665 78.3489 99.2496 72.8818 102.731 62.9005C102.76 62.8183 102.851 62.7753 102.932 62.8036C103.014 62.8325 103.057 62.9222 103.029 63.004C99.5089 73.0935 90.7333 78.6159 90.6449 78.6707C90.619 78.6867 90.5901 78.6943 90.5623 78.6943Z" fill="#EADFCE"/>
<path fill-rule="evenodd" clip-rule="evenodd" d="M141.145 208.072C140.886 205.998 140.334 205.119 140.334 205.119L135.478 203.886C135.478 203.886 135.255 204.035 134.07 205.257C132.885 206.479 126.44 209.516 123.885 210.591C121.329 211.665 119.217 213.443 119.217 213.443L141.108 212.776C141.108 212.776 141.404 210.146 141.145 208.072Z" fill="#2B211F"/>
<path fill-rule="evenodd" clip-rule="evenodd" d="M162.313 208.665C160.265 208.697 156.777 210.85 155.113 212.504C154.781 212.835 155.018 213.402 155.487 213.4L167.381 213.332C167.381 213.332 173.4 207.21 173.77 206.728C174.141 206.246 172.486 204.492 171.894 203.603C171.301 202.713 169.372 201.608 169.372 201.608L163.621 202.616L163.449 205.912L162.313 208.665Z" fill="#2B211F"/>
<path fill-rule="evenodd" clip-rule="evenodd" d="M139.976 205.911C140.53 204.798 140.41 204.461 140.41 204.461C140.41 204.461 137.537 203.891 136.684 203.903C135.832 203.913 135.403 204.378 135.403 204.378C135.403 204.378 135.059 205.557 135.928 206.214C136.797 206.87 139.423 207.024 139.976 205.911Z" fill="#EBB495"/>
<path fill-rule="evenodd" clip-rule="evenodd" d="M140.827 205.401L147.847 134.58L130.235 126.407L134.756 203.992C134.756 203.992 136.644 205.273 138.566 205.443C140.487 205.613 140.827 205.401 140.827 205.401Z" fill="#4C4F89"/>
<path d="M140.286 134.449L137.177 203.601L137.492 203.615L140.6 134.463L140.286 134.449Z" fill="#686BB8"/>
<path fill-rule="evenodd" clip-rule="evenodd" d="M167.122 203.22C169.307 202.516 169.604 201.961 169.604 201.961L167.603 198.923L163.195 200.516L163.788 203.442C163.788 203.442 164.937 203.924 167.122 203.22Z" fill="#EBB495"/>
<path fill-rule="evenodd" clip-rule="evenodd" d="M133.532 92.7875L132.728 79.2085L124.716 91.8246C124.716 91.8246 127.087 103.296 127.457 103.307C127.827 103.317 133.532 92.7875 133.532 92.7875Z" fill="#686BB8"/>
<path fill-rule="evenodd" clip-rule="evenodd" d="M98.3553 72.7992C98.3553 72.7992 94.0958 74.5402 94.7255 81.4662C94.7255 81.4662 95.3921 89.2077 101.8 89.6522C108.208 90.0968 124.951 83.0593 124.877 64.0949C124.877 64.0949 124.655 56.7238 122.062 53.4644C119.469 50.205 115.025 49.7605 113.098 51.5756C111.172 53.3907 110.709 53.0572 108.895 53.094C104.372 53.1862 102.685 55.7879 102.134 60.5024C101.541 65.5765 103.652 68.2061 98.3553 72.7992Z" fill="#332B28"/>
<path fill-rule="evenodd" clip-rule="evenodd" d="M112.894 79.9683C114.839 80.5055 119.006 82.8946 119.006 82.8946C116.476 79.3782 115.86 75.1602 115.487 70.9489L108.838 69.6709C109.403 72.9945 109.429 76.1028 109.061 79.4495C109.061 79.4495 110.95 79.4311 112.894 79.9683Z" fill="#FFC3AE"/>
<path fill-rule="evenodd" clip-rule="evenodd" d="M115.487 70.9489L108.838 69.6709C109.13 71.3887 109.275 73.0493 109.299 74.7147C109.452 74.6934 109.604 74.6722 109.769 74.6514C112.145 74.3533 114.751 75.3516 116.173 76.0187C115.831 74.359 115.638 72.6534 115.487 70.9489Z" fill="#F4AF9A"/>
<path fill-rule="evenodd" clip-rule="evenodd" d="M166.104 201.181C167.455 200.959 168.77 199.717 168.77 199.717L153.552 124.994C152.463 121.48 136.995 117.774 134.48 128.129L163.196 201.107C163.196 201.107 164.752 201.403 166.104 201.181Z" fill="#686BB8"/>
<path fill-rule="evenodd" clip-rule="evenodd" d="M153.552 124.994C152.463 121.48 136.995 117.774 134.48 128.129L136.791 134.001C140.868 133.676 149.406 132.75 154.659 130.435L153.552 124.994Z" fill="#4C4F89"/>
<path fill-rule="evenodd" clip-rule="evenodd" d="M110.067 67.8735C110.067 67.8735 108.919 67.0585 107.937 67.0027C103.786 66.7675 107.366 73.419 111.586 71.3922C111.586 71.3922 113.494 73.4294 115.698 74.1891C119.694 75.5658 121.361 74.2675 121.55 70.1332C121.625 68.5217 121.667 67.8999 121.667 67.8999C121.667 67.8999 123.03 67.1128 122.77 66.15C122.511 65.1871 120.718 63.7254 120.718 63.7254C120.277 61.1099 118.833 54.8751 114.921 55.9102C113.171 56.3732 112.382 58.0953 112.382 58.0953C114.673 61.2744 112.896 65.678 110.067 67.8735Z" fill="#FFC3AE"/>
<path fill-rule="evenodd" clip-rule="evenodd" d="M127.6 92.9317C126.318 88.6103 120.68 83.6439 116.821 81.5968C112.963 79.5502 110.672 78.8746 108.487 79.6707C106.302 80.4672 105.005 84.0413 104.598 85.9674C104.19 87.8936 103.412 90.7826 107.005 98.0795C110.598 105.376 111.071 110.594 111.071 113.261C111.071 115.927 112.752 115.125 113.641 115.421C114.53 115.717 124.179 116.575 127.179 115.686C130.179 114.797 128.007 113.007 127.821 106.933C127.636 100.858 128.6 96.3021 127.6 92.9317Z" fill="#F7F0E4"/>
<path fill-rule="evenodd" clip-rule="evenodd" d="M118.315 89.2124C118.315 89.2124 122.2 94.8751 124.439 95.2706C126.678 95.6655 126.678 95.6655 126.678 95.6655C126.678 95.6655 127.599 101.855 125.887 102.711C124.175 103.568 118.315 89.2124 118.315 89.2124Z" fill="#EADFCE"/>
<path fill-rule="evenodd" clip-rule="evenodd" d="M131.768 142.512C129.397 113.843 127.724 112.131 127.724 112.131L111.296 113.711C111.296 113.711 104.773 119.883 99.2191 134.305C94.1313 147.518 75.911 195.588 73.5408 201.44C72.7003 203.516 72.1296 204.92 71.7436 205.869C71.2376 207.111 72.2019 208.463 73.5403 208.372C73.5649 208.371 73.5899 208.369 73.615 208.367C76.1336 208.182 77.4673 206.293 80.5788 209.219C83.6903 212.145 80.4304 214.701 87.5421 215.183C94.6538 215.664 93.0296 213.075 97.7706 213.408C102.512 213.741 99.2838 216.331 105.803 216.479C112.322 216.627 110.903 213.408 115.681 213.445C120.46 213.482 119.915 216.146 124.249 216.442C126.923 216.625 129.986 215.313 131.939 214.282C133.167 213.633 133.939 212.364 133.939 210.975C133.943 202.087 133.82 167.331 131.768 142.512Z" fill="#F7F0E4"/>
<path d="M112.497 133.168C107.736 156.72 101.204 211.395 100.817 214.646C100.864 214.701 100.91 214.757 100.956 214.813L101.112 214.832C101.18 214.26 107.926 157.375 112.806 133.23L112.497 133.168Z" fill="#EADFCE"/>
<path d="M94.5081 164.92L82.5935 213.187C82.627 213.259 82.6639 213.33 82.7031 213.399L82.8557 213.437L94.8137 164.996L94.5081 164.92Z" fill="#EADFCE"/>
<path d="M128.843 149.987L128.528 149.994L130.047 215.181C130.152 215.136 130.256 215.092 130.359 215.047L128.843 149.987Z" fill="#EADFCE"/>
<path d="M121.977 215.95C122.078 215.992 122.183 216.031 122.292 216.069V146.567H121.977V215.95Z" fill="#EADFCE"/>
<path d="M113.771 113.937L113.51 113.761C113.439 113.866 106.339 124.435 102.623 135.587C98.9123 146.725 95.5428 161.131 95.5093 161.275L95.8159 161.347C95.8494 161.203 99.2156 146.811 102.922 135.686C106.624 124.576 113.7 114.042 113.771 113.937Z" fill="#EADFCE"/>
<path d="M110.041 215.822L111.755 178.841L111.441 178.826L109.719 215.956C109.831 215.913 109.938 215.868 110.041 215.822Z" fill="#EADFCE"/>
<path d="M121.764 114.762H121.449V138.401H121.764V114.762Z" fill="#EADFCE"/>
<path d="M118.163 114.72C115.816 123.131 112.528 158.836 112.495 159.196L112.809 159.224C112.842 158.865 116.127 123.188 118.466 114.805L118.163 114.72Z" fill="#EADFCE"/>
<path d="M92.1251 214.911C93.317 207.998 97.0063 186.819 99.8996 172.542L99.5911 172.48C96.6775 186.857 92.9575 208.229 91.7915 214.995C91.9077 214.968 92.0188 214.94 92.1251 214.911Z" fill="#EADFCE"/>
<path d="M128.842 142.473C128.772 141.511 127.1 118.856 125.017 114.692L124.735 114.833C126.791 118.941 128.511 142.261 128.527 142.496L128.842 142.473Z" fill="#EADFCE"/>
<path fill-rule="evenodd" clip-rule="evenodd" d="M110.83 109.876C111.667 110.462 113.925 111.906 117.39 112.486C123.892 113.576 126.349 113.577 126.349 113.577L105.343 85.7563C105.343 85.7563 104.951 92.8321 106.627 97.2939C106.748 97.5509 106.873 97.8117 107.005 98.08C109.433 103.011 110.434 106.989 110.83 109.876Z" fill="#EADFCE"/>
<path fill-rule="evenodd" clip-rule="evenodd" d="M128.258 112.13C124.372 113.699 114.203 112.201 111.195 111.539C110.711 111.433 110.239 111.754 110.157 112.243L109.863 113.987C109.792 114.415 110.045 114.838 110.462 114.959C118.236 117.219 128.684 115.644 128.684 115.644L128.258 112.13Z" fill="#FA7070"/>
<path fill-rule="evenodd" clip-rule="evenodd" d="M144.559 67.8999C144.559 67.8999 145.445 65.2561 146.235 62.199C147.989 55.4147 149.6 48.3138 139.806 50.6912C139.707 46.1675 134.941 46.1226 134.084 49.6726C132.068 46.5922 128.234 48.9275 129.306 53.8027C130.78 60.5119 139.251 64.8035 144.559 67.8999Z" fill="#332B28"/>
<path fill-rule="evenodd" clip-rule="evenodd" d="M156.61 82.1013C156.293 75.4266 152.074 71.5621 144.456 71.9698C140.308 72.1918 136.493 73.7107 133.863 77.2295C131.233 80.7483 130.048 89.1195 129.715 92.0085C129.382 94.8975 129.678 113.64 129.974 117.529C130.27 121.418 129.568 126.661 129.568 126.661C129.568 126.661 132.077 128.524 135.374 129.71C138.67 130.895 140.513 129.139 140.513 129.139C140.513 129.139 140.234 126.011 143.679 125.196C147.123 124.381 149.568 129.382 149.568 129.382L155.347 125.381C155.347 125.381 151.421 115.01 151.643 109.973C151.865 104.936 156.832 86.7686 156.61 82.1013Z" fill="#686BB8"/>
<path fill-rule="evenodd" clip-rule="evenodd" d="M156.611 82.1004C156.562 81.0671 156.418 80.1015 156.184 79.2085C154.467 76.4452 150.502 74.7132 148.281 78.3298L145.531 82.7254L137.087 102.774C136.916 103.181 136.514 103.442 136.073 103.435L129.596 103.326C129.632 106.716 129.734 111.987 129.815 114.761L140.188 116.473C142.326 116.753 144.431 115.76 145.569 113.929C148.661 108.956 153.204 96.4905 155.793 88.614C156.328 85.7746 156.673 83.4076 156.611 82.1004Z" fill="#4C4F89"/>
<path fill-rule="evenodd" clip-rule="evenodd" d="M106.715 100.527C106.307 102.231 107.456 103.343 107.826 105.491C108.196 107.639 108.122 108.565 110.085 109.121C112.048 109.676 113.641 109.379 113.641 109.379C113.641 109.379 114.493 106.157 114.715 104.157C114.937 102.157 114.825 101.459 114.825 101.459C114.405 100.595 113.752 98.4159 112.159 97.9714C110.567 97.5268 108.9 97.4158 108.715 98.1197C108.529 98.8237 108.751 99.2309 108.751 99.2309C108.751 99.2309 107.122 98.8237 106.715 100.527Z" fill="#FFC3AE"/>
<path fill-rule="evenodd" clip-rule="evenodd" d="M143.254 74.7689C144.153 73.9587 144.92 73.3299 145.531 72.8584C145.908 72.5673 145.702 71.9659 145.226 71.9569C144.974 71.9522 144.717 71.9565 144.456 71.9702C141.455 72.1308 138.629 72.9703 136.299 74.7548C135.373 75.942 134.942 75.6817 134.678 80.4227C134.483 83.9405 135.373 85.4929 135.373 85.4929C135.373 85.4929 140.795 76.9852 143.254 74.7689Z" fill="#F7F0E4"/>
<path fill-rule="evenodd" clip-rule="evenodd" d="M135.721 75.941C136.038 75.452 136.843 76.6076 136.843 76.6076C136.843 76.6076 137.02 76.096 137.61 76.1158C138.2 76.1356 138.122 76.6076 138.122 76.6076C138.122 76.6076 139.016 75.3623 139.631 75.4634C140.247 75.5645 140.296 79.1243 139.494 79.5585C138.693 79.9922 137.866 78.2016 137.866 78.2016C137.866 78.2016 137.394 78.7525 136.725 78.1624C136.725 78.1624 135.695 79.7527 135.344 79.7366C134.839 79.713 134.639 77.6144 135.721 75.941Z" fill="#FF8888"/>
<path fill-rule="evenodd" clip-rule="evenodd" d="M155.829 78.415C154.469 75.2048 149.927 72.7282 147.488 76.6991L144.738 81.0947L136.295 101.143C136.123 101.55 135.722 101.812 135.281 101.804L114.824 101.46L113.64 109.38L137.922 112.561C140.06 112.842 142.165 111.848 143.303 110.017C147.792 102.798 158.447 84.5927 155.829 78.415Z" fill="#686BB8"/>
<path d="M128.755 101.868L128.754 101.553L135.68 101.532C136.185 100.396 141.13 89.2589 143.326 84.0421C145.641 78.5448 148.163 75.5981 148.188 75.5688L148.426 75.7748C148.401 75.8036 145.911 78.7172 143.617 84.164C141.311 89.6396 135.98 101.632 135.927 101.752L135.885 101.845L128.755 101.868Z" fill="#4C4F89"/>
<path fill-rule="evenodd" clip-rule="evenodd" d="M127.179 101.667L127.155 101.712C127.175 101.713 127.181 101.695 127.179 101.667Z" fill="#FFC3A1"/>
<path fill-rule="evenodd" clip-rule="evenodd" d="M145.752 72.192C144.526 68.0491 143.569 64.0915 142.714 59.8579L136.012 69.8038C136.012 69.8038 136.307 73.2663 136.307 74.5996C136.307 75.9328 136.307 75.9328 136.307 75.9328C136.307 75.9328 137.862 76.118 142.048 74.7106C146.233 73.3037 145.752 72.192 145.752 72.192Z" fill="#FFC3AE"/>
<path fill-rule="evenodd" clip-rule="evenodd" d="M142.714 59.8579L136.012 69.8038C136.012 69.8038 136.271 72.8478 136.303 74.3265C140.634 74.3265 142.152 69.063 144.859 69.0304C143.865 65.5003 143.45 63.5038 142.714 59.8579Z" fill="#F4AF9A"/>
<path fill-rule="evenodd" clip-rule="evenodd" d="M137.602 57.9688C136.398 57.3391 134.083 57.8205 132.62 57.4317C131.157 57.0429 129.778 55.3643 129.778 55.3643L129.964 61.0624C129.739 63.2357 127.258 64.8741 128.971 66.0566C129.749 66.5938 130.085 66.401 130.119 67.1862C130.429 74.3263 135.539 74.0277 139.189 71.3017C140.87 70.0459 140.625 67.8505 141.103 65.21C141.103 65.21 143.214 65.6177 143.436 62.5804C143.658 59.543 142.807 58.2929 141.955 58.2188C141.103 58.1446 140.27 58.9501 139.973 60.8578C139.677 62.7656 139.807 63.0802 139.807 63.0802L138.529 63.5248C138.529 63.5248 138.806 58.5986 137.602 57.9688Z" fill="#FFC3AE"/>
<path d="M166.546 198.98L166.399 198.923L166.244 198.91C166.232 197.923 155.763 154.077 150.23 131.03L150.536 130.957C154.338 146.794 166.731 198.503 166.546 198.98Z" fill="#4C4F89"/>
<path d="M141.857 114.74L141.546 114.785L142.961 124.596L143.273 124.551L141.857 114.74Z" fill="#4C4F89"/>
<path fill-rule="evenodd" clip-rule="evenodd" d="M138.184 79.0645C137.593 78.8769 136.065 79.7802 135.493 80.719C134.92 81.6577 134.702 83.0155 134.702 83.0155C134.702 83.0155 134.119 82.784 134.06 83.0401C133.196 86.8182 134.282 88.1023 133.937 89.5097L125.295 102.449C125.223 101.432 113.641 82.0031 113.641 82.0031C113.641 82.0031 112.283 79.1755 109.561 79.4608C106.839 79.7462 104.898 82.8931 105.343 85.7562C105.665 87.8292 122.135 112.812 122.135 112.812C122.135 112.812 124.208 115.487 126.925 113.577C128.607 112.395 136.53 95.3368 137.271 90.2996C137.271 90.2996 137.889 89.6822 138.527 88.245C139.165 86.8078 138.629 85.004 138.703 84.1017C138.802 82.8931 138.703 82.2005 138.925 81.2868C139.147 80.3731 138.776 79.252 138.184 79.0645Z" fill="#FFC3AE"/>
<path fill-rule="evenodd" clip-rule="evenodd" d="M118.79 64.5399C118.881 64.9689 118.756 65.3582 118.512 65.4101C118.267 65.4616 117.995 65.156 117.905 64.727C117.814 64.298 117.939 63.9087 118.184 63.8567C118.428 63.8052 118.7 64.1109 118.79 64.5399Z" fill="#332B28"/>
<path d="M116.201 64.2028C116.197 64.2037 116.194 64.2047 116.19 64.2056C116.105 64.2245 116.022 64.1711 116.002 64.0865C115.99 64.0294 115.7 62.6791 116.656 62.0536C117.623 61.4201 118.824 62.5043 118.874 62.5506C118.939 62.6092 118.943 62.7089 118.884 62.7727C118.825 62.8365 118.725 62.8412 118.661 62.7826C118.651 62.7731 117.591 61.8188 116.828 62.3168C116.055 62.8223 116.306 64.0062 116.309 64.018C116.328 64.0988 116.28 64.1796 116.201 64.2028Z" fill="#332B28"/>
<path fill-rule="evenodd" clip-rule="evenodd" d="M132.437 62.7239C132.437 63.1623 132.234 63.5176 131.984 63.5171C131.734 63.5171 131.532 63.1613 131.532 62.7229C131.532 62.2845 131.735 61.9292 131.985 61.9297C132.235 61.9302 132.438 62.2859 132.437 62.7239Z" fill="#332B28"/>
<path d="M130.809 60.8858C130.805 60.8853 130.802 60.8848 130.798 60.8839C130.713 60.8659 130.658 60.7828 130.676 60.6977C130.688 60.6406 130.98 59.2908 132.109 59.1141C133.252 58.9351 133.899 60.4176 133.926 60.4809C133.96 60.5607 133.923 60.6529 133.843 60.6874C133.763 60.7214 133.671 60.6845 133.636 60.6047C133.631 60.5914 133.057 59.2856 132.157 59.425C131.245 59.5677 130.986 60.7497 130.984 60.7615C130.967 60.8437 130.89 60.8971 130.809 60.8858Z" fill="#332B28"/>
<path fill-rule="evenodd" clip-rule="evenodd" d="M118.842 70.8262C118.842 70.8262 119.878 71.824 121.293 70.418L118.842 70.8262Z" fill="#F9A19D"/>
<path fill-rule="evenodd" clip-rule="evenodd" d="M130.691 69.0952C130.691 69.0952 131.687 71.2703 133.532 69.2001L130.691 69.0952Z" fill="#F9A19D"/>
<path fill-rule="evenodd" clip-rule="evenodd" d="M140.575 63.0322C140.575 63.0322 141.081 59.3528 142.209 59.7246C143.336 60.0964 142.812 61.4037 142.707 61.5086C142.602 61.6135 141.841 60.4593 141.579 60.7215C141.317 60.9842 140.575 63.0322 140.575 63.0322Z" fill="#F4AF9A"/>
<path fill-rule="evenodd" clip-rule="evenodd" d="M109.769 69.0944C109.769 69.0944 107.839 67.9885 107.34 68.408C106.841 68.828 107.366 69.8508 107.681 69.9297C107.996 70.0086 107.524 69.0902 107.891 68.9589C108.259 68.8275 109.769 69.0944 109.769 69.0944Z" fill="#F4AF9A"/>
<path fill-rule="evenodd" clip-rule="evenodd" d="M79.65 79.7429C78.3593 79.6772 77.0558 80.075 75.921 82.2922C74.7862 80.075 73.4822 79.6772 72.192 79.7429C70.6816 79.8194 69.1655 81.6346 69.706 83.9311C70.7798 88.4959 75.921 91.2478 75.921 91.2478C75.921 91.2478 81.0621 88.4959 82.1365 83.9311C82.6765 81.6346 81.1604 79.8199 79.65 79.7429Z" fill="#FF8888"/>
<path fill-rule="evenodd" clip-rule="evenodd" d="M181.892 62.0393C180.601 61.9736 179.298 62.3714 178.163 64.5886C177.028 62.3714 175.724 61.9736 174.434 62.0393C172.924 62.1158 171.408 63.9305 171.948 66.2275C173.023 70.7922 178.164 73.5442 178.164 73.5442C178.164 73.5442 183.305 70.7922 184.379 66.2275C184.919 63.9305 183.403 62.1158 181.892 62.0393Z" fill="#FF8888"/>
<path fill-rule="evenodd" clip-rule="evenodd" d="M164.723 50.5198C164.107 50.4886 163.486 50.6781 162.944 51.7363C162.402 50.6781 161.78 50.4881 161.164 50.5198C160.443 50.5562 159.72 51.4226 159.978 52.5187C160.49 54.6971 162.944 56.0105 162.944 56.0105C162.944 56.0105 165.397 54.6971 165.91 52.5187C166.168 51.4222 165.444 50.5562 164.723 50.5198Z" fill="#FF8888"/>
<path fill-rule="evenodd" clip-rule="evenodd" d="M89.1646 90.8859C88.5486 90.8547 87.9268 91.0442 87.385 92.1025C86.8435 91.0442 86.2213 90.8547 85.6053 90.8859C84.8843 90.9223 84.161 91.7888 84.4189 92.8848C84.9315 95.0633 87.385 96.3767 87.385 96.3767C87.385 96.3767 89.8384 95.0633 90.351 92.8848C90.6089 91.7883 89.8856 90.9223 89.1646 90.8859Z" fill="#FF8888"/>
</g>
<defs>
<clipPath id="clip0_1653_63585">
<rect width="236.222" height="236.222" fill="white" transform="translate(0.388794)"/>
</clipPath>
</defs>
</svg>
